<svg width="40" height="40" viewBox="0 0 40 40" fill="none" xmlns="http://www.w3.org/2000/svg">
<path d="M20 0C8.954 0 0 8.954 0 20c0 8.836 5.733 16.324 13.683 18.968.999.183 1.366-.433 1.366-.962 0-.473-.018-1.727-.027-3.39-5.566 1.21-6.74-2.683-6.74-2.683-.909-2.308-2.22-2.923-2.22-2.923-1.815-1.24.137-1.215.137-1.215 2.006.142 3.065 2.06 3.065 2.06 1.783 3.057 4.677 2.174 5.817 1.663.182-1.293.698-2.174 1.27-2.675-4.438-.504-9.104-2.22-9.104-9.875 0-2.183.78-3.967 2.06-5.366-.207-.504-.892-2.54.196-5.29 0 0 1.679-.537 5.5 2.05C17.08 5.33 18.54 5.06 20 5.054c1.46.006 2.92.276 4.265.816 3.821-2.587 5.5-2.05 5.5-2.05 1.088 2.75.403 4.786.196 5.29 1.28 1.4 2.057 3.183 2.057 5.366 0 7.678-4.67 9.367-9.125 9.86.717.616 1.358 1.842 1.358 3.712 0 2.675-.024 4.833-.024 5.49 0 .533.362 1.15.137.962C34.27 36.32 40 28.832 40 20 40 8.954 31.046 0 20 0z" fill="#5DE794"/>
</svg>
